<svg width="91" height="29" viewBox="0 0 91 29" fill="none" xmlns="http://www.w3.org/2000/svg">
<path fill-rule="evenodd" clip-rule="evenodd" d="M74.2751 1.40345C74.792 1.28229 75.3817 1.17459 75.9569 1.08036C71.2828 0.171674 67.7154 0.790926 67.7154 0.790926C70.2344 0.595727 72.4186 0.878429 74.2751 1.40345ZM78.4175 1.67934C77.624 1.81396 76.7867 1.9957 76.2771 2.11685C77.6021 2.68226 78.716 3.36209 79.6188 4.0352C80.2959 3.81307 81.2788 3.52364 82.4145 3.26113C81.0603 2.5813 79.7135 2.06974 78.4175 1.67934ZM90.001 9.39976C88.4575 7.50162 86.7757 6.0006 85.0503 4.82268C84.0965 5.00441 82.7132 5.30731 81.4974 5.67078C82.2254 6.41119 82.5822 6.93621 82.5822 6.93621C63.7185 6.8689 49.9365 16.2452 49.9365 16.2452C67.3514 11.6143 83.4486 13.048 83.4486 13.048L81.7231 14.5557L85.6473 12.7787L79.67 10.6383C84.8828 8.33626 90.001 9.39976 90.001 9.39976Z" fill="#D52544"/>
<path fill-rule="evenodd" clip-rule="evenodd" d="M9.85049 21.2802C9.85049 22.3639 9.15156 23.0236 8.09589 23.3668C9.3627 23.7034 10.1781 24.3226 10.1781 25.5746V25.6015C10.1781 27.0622 8.88218 28.1257 6.39226 28.1257H0.931901V21.3206H0.560597L0 19.0186H0.931901H0.939182H6.4505C7.81195 19.0186 8.67105 19.3013 9.24621 19.8331C9.60295 20.1629 9.85049 20.6273 9.85049 21.2533V21.2802ZM4.13509 21.3206H5.56206C6.26099 21.3206 6.61773 21.5427 6.61773 21.9466V21.9735C6.61773 22.3706 6.27555 22.5927 5.57662 22.5927H4.13509V21.3206ZM6.87254 25.1574C6.87254 25.5478 6.50852 25.8237 5.78775 25.8237H4.13509V24.4708H5.80231C6.5158 24.4708 6.87254 24.74 6.87254 25.1372V25.1574Z" fill="#D52544"/>
<path d="M13.8982 19.0186H10.6074V28.1257H17.6913V25.5208H13.8982V19.0186Z" fill="#D52544"/>
<path fill-rule="evenodd" clip-rule="evenodd" d="M17.9102 28.1256L22.06 18.9512H25.329L29.4788 28.1256H25.9041L25.5547 27.2977H21.7761L21.4339 28.1256H17.9102ZM23.668 22.5319L22.787 24.6926H24.5489L23.668 22.5319Z" fill="#D52544"/>
<path d="M33.5992 25.588C32.5217 25.588 31.7572 24.7534 31.7572 23.5687V23.5485C31.7572 22.4514 32.4926 21.5562 33.5992 21.5562C34.502 21.5562 35.0262 22.0071 35.3902 22.66L38.1058 21.1927C37.2758 19.7994 35.8125 18.8234 33.6502 18.8234C30.7016 18.8234 28.4082 20.8494 28.4082 23.5687V23.5956C28.4082 26.4227 30.7889 28.3208 33.5191 28.3208C35.9653 28.3208 37.3486 27.2169 38.1786 25.864L35.463 24.4438C35.0553 25.1169 34.5311 25.588 33.5992 25.588Z" fill="#D52544"/>
<path fill-rule="evenodd" clip-rule="evenodd" d="M58.4986 21.2802C58.4986 22.3639 57.7924 23.0236 56.7367 23.3668C58.0035 23.7034 58.8189 24.3226 58.8189 25.5746V25.6015C58.8189 27.0622 57.523 28.1257 55.0331 28.1257H49.5654V19.0186H55.084C56.4528 19.0186 57.3119 19.3013 57.8943 19.8331C58.2438 20.1629 58.4986 20.6273 58.4986 21.2533V21.2802ZM52.7754 21.3206H54.2024C54.9086 21.3206 55.258 21.5427 55.258 21.9466V21.9735C55.258 22.3706 54.9231 22.5927 54.2169 22.5927H52.7754V21.3206ZM55.5128 25.1574C55.5128 25.5478 55.1415 25.8237 54.4281 25.8237H52.7754V24.4708H54.4426C55.1561 24.4708 55.5128 24.74 55.5128 25.1372V25.1574Z" fill="#D52544"/>
<path d="M65.444 24.0669C65.444 25.1708 64.8106 25.615 63.9224 25.615C63.0415 25.615 62.4008 25.1304 62.4008 23.9996V19.0186H59.0518V24.0399C59.0518 27.0622 60.952 28.3074 63.8933 28.3074C66.8346 28.3074 68.793 27.0891 68.793 23.9726V19.0186H65.444V24.0669Z" fill="#D52544"/>
<path d="M74.4649 25.588C73.3801 25.588 72.6156 24.7534 72.6156 23.5687V23.5485C72.6156 22.4514 73.3509 21.5562 74.4649 21.5562C75.3604 21.5562 75.8846 22.0071 76.2486 22.66L78.9642 21.1927C78.1342 19.7994 76.6708 18.8234 74.5013 18.8234C71.56 18.8234 69.2666 20.8494 69.2666 23.5687V23.5956C69.2666 26.4227 71.6473 28.3208 74.3775 28.3208C76.8237 28.3208 78.207 27.2169 79.037 25.864L76.3214 24.4438C75.9137 25.1169 75.3895 25.588 74.4649 25.588Z" fill="#D52544"/>
<path d="M90.0011 19.0186H86.1061L82.677 23.1851V19.0186H79.3789V28.1257H82.677V26.1871V23.9592L86.1061 28.1257H90.0011L86.259 23.5688L90.0011 19.0186Z" fill="#D52544"/>
<path d="M45.2486 19.0186L41.8195 23.1851V19.0186H38.5215V28.1257H41.8195V26.1871V23.9592L45.2486 28.1257H49.151L45.4015 23.5688L49.151 19.0186H45.2486Z" fill="#D52544"/>
</svg>
